<svg width="22" height="22" viewBox="0 0 22 22" fill="none" xmlns="http://www.w3.org/2000/svg">
    <path d="M12.58 12.568H8.603v7.003h3.979v-7.003z" fill="#000"/>
    <path d="M18.965 8.747 11.295.864a.995.995 0 0 0-1.088-.219.995.995 0 0 0-.324.22l-7.67 7.892a2.002 2.002 0 0 0-.576 1.43v8.384c0 .512.194 1.005.543 1.377.35.372.828.595 1.337.623H6.61v-9.003c0-.265.104-.52.291-.707a.992.992 0 0 1 .703-.293h5.969c.264 0 .517.105.703.293.187.187.292.442.292.707v9.003h3.093A1.985 1.985 0 0 0 19 19.948c.35-.372.544-.865.543-1.377v-8.383c.001-.538-.206-1.054-.577-1.44z" fill="#000"/>
</svg>
