<svg width="22" height="22" viewBox="0 0 22 22" fill="none" xmlns="http://www.w3.org/2000/svg">
    <circle cx="10.59" cy="10.641" r="10" fill="#000"/>
    <path d="M16.552 10.45a.508.508 0 0 0-.108-.164l-1.5-1.5a.5.5 0 0 0-.707.708l.646.646H12.09a.5.5 0 1 0 0 1h2.793l-.646.647a.5.5 0 0 0 .707.707l1.5-1.5a.498.498 0 0 0 .108-.545z" fill="#fff"/>
    <path d="M13.146 12.057a.452.452 0 0 0-.445.458v2.292h-1.778V7.474a.457.457 0 0 0-.317-.44l-1.543-.477H12.7V8.85c0 .253.198.458.444.458a.452.452 0 0 0 .444-.458v-2.75a.451.451 0 0 0-.444-.458h-7.11c-.017 0-.031.007-.046.008a.427.427 0 0 0-.189.068c-.01.006-.022.007-.031.015-.004.002-.005.007-.008.01a.449.449 0 0 0-.118.145c-.007.012-.008.026-.013.038-.015.035-.03.07-.035.107-.003.014.001.027 0 .04 0 .01-.005.018-.005.027v9.166c0 .219.15.407.357.45l4.445.916a.436.436 0 0 0 .369-.095.464.464 0 0 0 .162-.354v-.458h2.223a.451.451 0 0 0 .444-.458v-2.75a.452.452 0 0 0-.444-.46z" fill="#fff"/>
</svg>
